# xmcd CD database file
#
# Track frame offsets:
#	150
#	52350
#	77700
#	114300
#	144150
#	170550
#	195900
#	224550
#	241200
#	258600
#	287250
#	302550
#
# Disc length: 4484 seconds
#
# Revision: 0
# Processed by: cddbd v1.5.2PL0 Copyright (c) Steve Scherf et al.
# Submitted via: CDex 1.51
#
DISCID=a711820c
DTITLE=Djabe - Köszönjük, Sipi!
DYEAR=2007
DGENRE=Jazz
TTITLE0=Hagar Kim (Siposs - Égerházi)
TTITLE1=Szavak nélkül (Djabe)
TTITLE2=Sziget (Égerházi)
TTITLE3=Visions (Siposs - Égerházi)
TTITLE4=Witchi Tai To (Jim Pepper)
TTITLE5=Vágta (Égerházi - Gesztelyi)
TTITLE6=Jégvilág (Barabás)
TTITLE7=Above the Skies (Égerházi - Barabás)
TTITLE8=Lelkek cseréje (Barabás)
TTITLE9=". . .yorubákhoz ebédre" (Djabe)
TTITLE10=Sipi (Djabe)
TTITLE11=Witchi Tai To - az utolsó koncertfelvétel
EXTD=YEAR: 2007
EXTT0=
EXTT1=
EXTT2=
EXTT3=
EXTT4=
EXTT5=
EXTT6=
EXTT7=
EXTT8=
EXTT9=
EXTT10=
EXTT11=
PLAYORDER=
